<?xml version="1.0" encoding="UTF-8"?>
<svg width="29px" height="30px" viewBox="0 0 29 30" version="1.1" xmlns="http://www.w3.org/2000/svg" xmlns:xlink="http://www.w3.org/1999/xlink">
    <title>定时</title>
    <g id="业务员端" stroke="none" stroke-width="1" fill="none" fill-rule="evenodd">
        <g id="客户详情-有跟进" transform="translate(-371.000000, -752.000000)" fill="#1890FF" fill-rule="nonzero">
            <g id="定时" transform="translate(371.000000, 752.000000)">
                <path d="M14.3008489,29.5895109 C6.8344884,29.5895109 0.760418828,23.5161198 0.760418828,16.0511501 C0.760418828,8.58618051 6.83452232,2.5127894 14.3008489,2.5127894 C21.7658185,2.5127894 27.8384972,8.58618051 27.8384972,16.0511501 C27.8384972,23.5161198 21.7651061,29.5895109 14.3008489,29.5895109 Z M14.3008489,4.59700235 C7.98358718,4.59700235 2.84463178,9.7352793 2.84463178,16.0511501 C2.84393704,22.367021 7.98362111,27.5052979 14.3008489,27.5052979 C20.6167197,27.5052979 25.7542843,22.367021 25.7542843,16.0511501 C25.7542843,9.7352793 20.6160073,4.59700235 14.3008489,4.59700235 Z M20.2714201,15.0090437 L15.3415645,15.0090437 L15.3415645,8.99817215 L15.3415645,8.99817215 C15.3415645,8.42263221 14.874998,7.95606567 14.299458,7.95606567 C13.7239181,7.95606567 13.2573515,8.42263221 13.2573515,8.99817215 L13.2573515,15.9385945 C13.2573515,15.9580471 13.2622147,15.9761103 13.2629094,15.9948682 C13.2622147,16.0136262 13.2573515,16.0316893 13.2573515,16.051142 L13.2573515,16.0511418 C13.2573515,16.6266818 13.7239181,17.0932483 14.299458,17.0932483 C14.299458,17.0932483 14.299458,17.0932483 14.299458,17.0932483 L20.2714201,17.0932483 L20.2714202,17.0932483 C20.8469601,17.0932483 21.3135266,16.6266818 21.3135266,16.0511418 C21.3135266,15.4756019 20.8469601,15.0090354 20.2714202,15.0090354 C20.2714201,15.0090354 20.2714201,15.0090354 20.2714201,15.0090354 L20.2714201,15.0090437 Z M1.45237481,6.35888145 L1.45237482,6.35888145 C0.876834879,6.35877735 0.410353148,5.89212495 0.410458291,5.31658501 C0.410458291,5.00674084 0.548444129,4.71299097 0.786817504,4.51504502 L5.44434143,0.650906063 L5.44434136,0.650906117 C5.88290807,0.278207184 6.54057157,0.331606321 6.91326711,0.77017405 C7.28596604,1.20874076 7.2325669,1.86640425 6.79399917,2.23909979 C6.78765172,2.24449388 6.78123985,2.24981171 6.77476488,2.25505206 L2.11724096,6.11919102 C1.92271442,6.28037015 1.68719903,6.35888145 1.45237567,6.35888145 L1.45237481,6.35888145 Z M27.0624807,6.35889079 C26.8283541,6.35889079 26.5921419,6.2803761 26.3976154,6.11850223 L21.7400915,2.25436327 L21.7400916,2.25436335 C21.2973083,1.88697672 21.2361897,1.23020539 21.6035756,0.787425478 C21.9709622,0.344642171 22.6277336,0.283523576 23.0705135,0.65090953 L27.7287159,4.51504848 L27.7287159,4.51504853 C28.1722693,4.88059316 28.235508,5.53649606 27.8699651,5.98004941 C27.6712942,6.22111795 27.3748424,6.36019439 27.0624615,6.35889079 L27.0624807,6.35889079 Z" id="形状"></path>
            </g>
        </g>
    </g>
</svg>