<?xml version="1.0" encoding="UTF-8"?>
<svg width="42px" height="42px" viewBox="0 0 42 42" version="1.1" xmlns="http://www.w3.org/2000/svg" xmlns:xlink="http://www.w3.org/1999/xlink">
    <title>电  话</title>
    <g id="业务员端" stroke="none" stroke-width="1" fill="none" fill-rule="evenodd">
        <g id="客户详情-有跟进" transform="translate(-62.000000, -501.000000)" fill="#1890FF" fill-rule="nonzero">
            <g id="电--话" transform="translate(62.000000, 501.000000)">
                <path d="M21.0000244,0 C32.5981493,0 42.0000489,9.40189961 42.0000489,21.0000244 C42.0000489,32.5981493 32.5981493,42.0000489 21.0000244,42.0000489 C9.40189961,42.0000489 0,32.5981493 0,21.0000244 C0,9.40189961 9.40189961,0 21.0000244,0 Z M16.5436716,8.41489846 C15.5400181,8.24427327 14.6938648,8.58638499 13.3735292,9.44213599 L12.9972515,9.68626127 L12.6533761,9.90241387 C10.0406367,11.5176111 11.1439993,18.1711735 15.4061429,24.4116671 C19.6568842,30.6355493 25.5683911,34.2772899 28.1461441,32.686538 C28.3097966,32.5867879 28.9476724,32.2140375 29.0202701,32.1702738 C30.1280214,31.511398 30.7501471,30.9758974 31.0721612,30.1997988 C31.506148,29.1620203 31.1736749,27.9974213 30.051035,26.6849197 C28.2353942,24.5621536 26.8607949,24.060778 25.3059318,24.7703902 L25.3059321,24.77039 C25.0607724,24.8832118 24.8228864,25.0112098 24.593658,25.1536388 L23.9059072,25.5797917 C23.3835316,25.9017647 21.7875298,24.3740129 19.8756662,21.581912 C17.9900117,18.8212701 17.1797881,16.8341428 17.6575386,16.5375175 C17.7038863,16.5086424 18.2035393,16.2059057 18.3443871,16.1157533 C20.299153,14.8863905 20.6333897,13.531889 19.1144153,10.676747 C18.3968871,9.3274954 17.5446635,8.58638321 16.543635,8.41489668 L16.5436716,8.41489846 Z" id="形状"></path>
            </g>
        </g>
    </g>
</svg>