<?xml version="1.0" encoding="UTF-8"?>
<svg width="28px" height="28px" viewBox="0 0 28 28" version="1.1" xmlns="http://www.w3.org/2000/svg" xmlns:xlink="http://www.w3.org/1999/xlink">
    <title>关闭</title>
    <g id="用户端门户" stroke="none" stroke-width="1" fill="none" fill-rule="evenodd">
        <g id="提交反馈" transform="translate(-143.000000, -551.000000)">
            <g id="上传图片" transform="translate(30.000000, 551.000000)">
                <g id="关闭" transform="translate(113.000000, 0.000000)">
                    <ellipse id="椭圆形" fill="#FFFFFF" cx="13.8523222" cy="13.8449777" rx="9.79798399" ry="9.79278909"></ellipse>
                    <g id="关--闭-(7)-01" fill="#F56C6C" fill-rule="nonzero">
                        <path d="M4.50121962e-16,14.0074192 C4.50121962e-16,6.26823652 6.27157863,-1.49961102e-16 14,-1.49961102e-16 L14,-1.49961102e-16 C21.7311228,0.00205010511 27.9979228,6.26553769 28,13.9925612 L28,14.0074198 L28,14.0078076 C28.007985,21.7274891 21.7531318,27.9919821 14.0293551,28 C14.0194392,28 14.0095233,28 13.9996076,28 L13.9996075,28 C6.27072065,28.0028543 0.00287542731,21.7429848 4.50121962e-16,14.0181958 C4.50121962e-16,14.01461 4.50121962e-16,14.0110243 4.50121962e-16,14.0074384 L4.50121962e-16,14.0074192 Z M14.9365541,14.0074192 L19.8255849,9.1209806 L19.8255849,9.12098061 C20.0759967,8.8751723 20.0796229,8.47301327 19.8336842,8.22273652 C19.8310088,8.22001391 19.8283089,8.21731545 19.8255849,8.2146415 L19.795853,8.18492541 L19.7958531,8.18492543 C19.5499143,7.93464635 19.147542,7.93102209 18.8971325,8.17683035 C18.8944084,8.17950432 18.8917085,8.18220278 18.8890331,8.18492537 L14.0000024,13.0880793 L9.11097161,8.18492537 L9.11097162,8.18492538 C8.86503291,7.93464631 8.46266054,7.93102205 8.21225102,8.17683031 C8.20952697,8.17950428 8.20682708,8.18220274 8.20415171,8.18492533 L8.17441986,8.21464141 L8.17441983,8.21464144 C7.92400798,8.46044976 7.9203818,8.86260878 8.16632057,9.11288554 C8.16899596,9.11560815 8.17169585,9.11830661 8.17441989,9.12098056 L13.0634507,14.0222772 L8.17441989,18.9087158 L8.17441986,18.9087158 C7.92400801,19.1545241 7.92038183,19.5566832 8.1663206,19.8069599 C8.16899599,19.8096825 8.17169588,19.812381 8.17441991,19.815055 L8.20415176,19.844771 L8.20415179,19.8447711 C8.4500905,20.0950501 8.85246286,20.0986744 9.10287239,19.8528661 C9.10559644,19.8501921 9.10829633,19.8474936 9.1109717,19.844771 L14.0000025,14.9583324 L18.8890332,19.844771 L18.8890333,19.8447711 C19.134972,20.0950501 19.5373443,20.0986744 19.7877539,19.8528661 C19.7904779,19.8501921 19.7931778,19.8474936 19.7958532,19.844771 L19.825585,19.8150549 L19.825585,19.815055 C20.0759969,19.5692466 20.079623,19.1670876 19.8336844,18.9168109 C19.831009,18.9140882 19.8283091,18.9113898 19.825585,18.9087158 L14.9365543,14.0074192 L14.9365541,14.0074192 Z" id="形状"></path>
                    </g>
                </g>
            </g>
        </g>
    </g>
</svg>