<?xml version="1.0" encoding="UTF-8"?>
<svg width="37px" height="37px" viewBox="0 0 37 37" version="1.1" xmlns="http://www.w3.org/2000/svg" xmlns:xlink="http://www.w3.org/1999/xlink">
    <title>PictureOutline</title>
    <g id="用户端门户" stroke="none" stroke-width="1" fill="none" fill-rule="evenodd">
        <g id="反馈详情" transform="translate(-30.000000, -1258.000000)" fill="#656667" fill-rule="nonzero">
            <g id="PictureOutline" transform="translate(30.000000, 1258.000000)">
                <path d="M31.1666891,-1.33226763e-15 L31.1666889,-1.33226763e-15 C34.2042564,-1.33226763e-15 36.6666953,2.46243451 36.6666953,5.5 L36.6666953,31.1666886 L36.6666953,31.1666886 C36.6666953,34.2042562 34.2042564,36.666695 31.1666889,36.666695 L5.5,36.666695 L5.5,36.666695 C2.4624388,36.666695 4.4408921e-16,34.2042562 4.4408921e-16,31.1666886 C4.4408921e-16,31.1666886 4.4408921e-16,31.1666886 4.4408921e-16,31.1666886 L4.4408921e-16,5.5 L4.4408921e-16,5.5 C4.4408921e-16,2.46243963 2.46243451,-1.33226763e-15 5.5,-1.33226763e-15 L31.1666886,-1.33226763e-15 L31.1666891,-1.33226763e-15 Z M31.1666891,2.74997259 L5.50000688,2.74997259 L5.50000701,2.74997259 C4.04382875,2.74997259 2.84001485,3.88500257 2.75458858,5.33867145 L2.75000522,5.50000511 L2.75000522,31.1666873 L2.75000522,31.1668401 C2.75000522,32.6230183 3.88515068,33.8267678 5.33882816,33.9121167 L5.50000928,33.9166911 L31.1666915,33.9166911 L31.1666915,33.9166911 C32.6228697,33.9167723 33.8266836,32.7816918 33.9121099,31.3280229 L33.9166932,31.1666892 L33.9166932,30.5543537 L26.3816845,23.019345 L26.3816845,23.019345 C25.7457119,22.3839482 24.7275361,22.3459852 24.0460165,22.9322614 L23.9515999,23.0202615 L12.1384885,34.8324276 L8.24998397,34.8324276 L22.5747506,20.5085633 L22.5747504,20.5085635 C24.0065869,19.077161 26.3275896,19.077161 27.7594088,20.5085631 L33.2905676,26.0388195 L33.2905676,26.0388195 C33.4336803,26.1820916 33.6658407,26.182221 33.809115,26.0391083 C33.8780374,25.9702624 33.9166932,25.8768194 33.9166932,25.7794027 L33.9166932,5.49997677 L33.9166932,5.4998236 C33.9166932,4.04364534 32.781508,2.83989589 31.3278306,2.75454696 L31.1666503,2.74997259 L31.1666891,2.74997259 Z M11.0000133,7.33335619 L11.0000132,7.33335619 C13.5313224,7.33311105 15.5835381,9.38494451 15.5837959,11.9162365 C15.584041,14.4475457 13.5322076,16.4997614 11.0009155,16.5000192 C11.0006197,16.5000192 11.0003238,16.5000192 11.000028,16.5000192 L11.0000279,16.5000192 C8.46871871,16.4997741 6.41688976,14.4475457 6.41714758,11.9162365 C6.41739268,9.38527537 8.46907965,7.33357103 11.0000279,7.33335619 L11.0000133,7.33335619 Z M11.0000133,10.0833594 L11.0000134,10.0833594 C9.98749227,10.0832043 9.16655186,10.9038916 9.16639717,11.9164127 C9.16624211,12.9289338 9.98692938,13.7498742 10.9994505,13.7500289 C10.9996376,13.7500289 10.9998247,13.7500289 11.0000118,13.7500289 L11.0000119,13.7500289 C12.012533,13.7498738 12.8332199,12.9289338 12.8330652,11.9164127 C12.8329102,10.9041107 12.0123139,10.0835141 11.0000119,10.0833594 L11.0000133,10.0833594 Z" id="形状"></path>
            </g>
        </g>
    </g>
</svg>