<?xml version="1.0" encoding="UTF-8"?>
<svg width="32px" height="30px" viewBox="0 0 32 30" version="1.1" xmlns="http://www.w3.org/2000/svg" xmlns:xlink="http://www.w3.org/1999/xlink">
    <title>编组 2备份 7</title>
    <g id="用户端门户" stroke="none" stroke-width="1" fill="none" fill-rule="evenodd">
        <g id="反馈详情-评价" transform="translate(-470.000000, -537.000000)" fill="#FEA12E" fill-rule="nonzero">
            <g id="编组-11" transform="translate(-1.000000, 128.000000)">
                <g id="编组" transform="translate(154.000000, 245.000000)">
                    <g id="编组-9" transform="translate(51.000000, 162.000000)">
                        <g id="编组-5" transform="translate(140.000000, 2.000000)">
                            <g id="星星-线" transform="translate(126.000000, 0.000000)">
                                <path d="M6.48705132,29.996812 C6.26913241,29.996812 6.06755867,29.8990849 5.92591009,29.7362061 C5.78426274,29.5733274 5.72978301,29.356156 5.76247091,29.1389849 L7.47313246,19.192536 L0.221893657,12.1561667 C0.0203186961,11.9607121 -0.05050498,11.6729608 0.0366626448,11.4069261 C0.12383027,11.140891 0.352644636,10.9508647 0.630491764,10.9074323 L10.6493079,9.4578117 L15.1275377,0.407197652 C15.2528411,0.157450164 15.5088954,0 15.7867426,0 C16.0645891,0 16.3206429,0.157449556 16.4459475,0.407197652 L20.9241772,9.4578117 L30.9484556,10.9074323 C31.2263021,10.9454373 31.455118,11.1408919 31.5422847,11.4069261 C31.6294524,11.6729615 31.5586286,11.9607149 31.3570537,12.1561667 L24.1058149,19.1979491 L25.8164765,29.144398 C25.8655083,29.4212918 25.7511007,29.6981868 25.522286,29.8610659 C25.2934713,30.0239446 24.9992796,30.0456617 24.7486734,29.9153588 L15.7867517,25.2190227 L6.82483002,29.9153588 C6.72131845,29.9696517 6.60691111,29.996798 6.48705711,29.996798 L6.48705132,29.996812 Z" id="形状"></path>
                            </g>
                        </g>
                    </g>
                </g>
            </g>
        </g>
    </g>
</svg>