<?xml version="1.0" standalone="no"?><!DOCTYPE svg PUBLIC "-//W3C//DTD SVG 1.1//EN" "http://www.w3.org/Graphics/SVG/1.1/DTD/svg11.dtd"><svg t="1614346329710" class="icon" viewBox="0 0 1024 1024" version="1.1" xmlns="http://www.w3.org/2000/svg" p-id="1152" xmlns:xlink="http://www.w3.org/1999/xlink" width="200" height="200"><defs><style type="text/css"></style></defs><path d="M512 0c281.6 0 512 230.4 512 512s-230.4 512-512 512-512-230.4-512-512 230.4-512 512-512z m0 204.8c-25.6 0-51.2 25.6-51.2 51.2v352c0 25.6 19.2 51.2 51.2 51.2 25.6 0 51.2-19.2 51.2-51.2V256c0-25.6-25.6-51.2-51.2-51.2z m0 614.4c25.6 0 51.2-19.2 51.2-51.2s-25.6-51.2-51.2-51.2-51.2 19.2-51.2 51.2 25.6 51.2 51.2 51.2z" p-id="1153" fill="#ff0000"></path></svg>