<?xml version="1.0" encoding="UTF-8"?>
<svg width="128px" height="128px" viewBox="0 0 128 128" version="1.1" xmlns="http://www.w3.org/2000/svg" xmlns:xlink="http://www.w3.org/1999/xlink">
    <title>编组 3备份</title>
    <defs>
        <rect id="path-1" x="0" y="0" width="128" height="128" rx="5"></rect>
        <mask id="mask-2" maskContentUnits="userSpaceOnUse" maskUnits="objectBoundingBox" x="0" y="0" width="128" height="128" fill="white">
            <use xlink:href="#path-1"></use>
        </mask>
    </defs>
    <g id="用户端门户" stroke="none" stroke-width="1" fill="none" fill-rule="evenodd">
        <g id="提交反馈" transform="translate(-178.000000, -565.000000)">
            <g id="上传图片" transform="translate(30.000000, 551.000000)">
                <g id="编组-3备份" transform="translate(148.000000, 14.000000)">
                    <use id="矩形" stroke="#979797" mask="url(#mask-2)" stroke-width="2" stroke-dasharray="3" xlink:href="#path-1"></use>
                    <g id="照片" transform="translate(44.000000, 48.000000)" fill="#B4B4B4" fill-rule="nonzero">
                        <path d="M3.71428571,32.5 C2,32.5 0,30.7894737 0,28.5087719 L0,8.55263158 C0,6.27192982 2.57142857,4.84649123 4,4.84649123 L9.71428571,4.84649123 L12.5714286,0 L27.7142857,0 L30.8571429,5.13157895 L36.5714286,5.13157895 C38.5714286,4.84649123 40,7.4122807 40,8.8377193 L40,28.7938596 C40,30.7894737 38,32.5 36.2857143,32.5 L3.71428571,32.5 Z M4,7.69736842 C3.71428571,7.69736842 2.85714286,7.98245614 2.85714286,8.8377193 L2.85714286,28.7938596 C2.85714286,29.3640351 3.42857143,29.9342105 3.71428571,29.9342105 L36.2857143,29.9342105 C36.5714286,29.9342105 37.4285714,29.3640351 37.4285714,28.7938596 L37.4285714,8.8377193 C37.4285714,8.8377193 37.1428571,7.69736842 36.2857143,7.69736842 L29.1428571,7.69736842 L28.2857143,6.55701754 L26,2.85087719 L14,2.85087719 L11.7142857,6.55701754 L11.1428571,7.69736842 L4,7.69736842 Z M20,26.2280702 C15.1428571,26.2280702 11.1428571,22.2368421 11.1428571,17.3903509 C11.1428571,12.5438596 15.1428571,8.55263158 20,8.55263158 C24.8571429,8.55263158 28.8571429,12.5438596 28.8571429,17.3903509 C28.8571429,22.2368421 24.8571429,26.2280702 20,26.2280702 Z M20,11.4035088 C16.5714286,11.4035088 14,14.254386 14,17.3903509 C14,20.5263158 16.8571429,23.377193 20,23.377193 C23.1428571,23.377193 26,20.5263158 26,17.3903509 C26,14.254386 23.4285714,11.4035088 20,11.4035088 Z" id="形状"></path>
                    </g>
                </g>
            </g>
        </g>
    </g>
</svg>