<?xml version="1.0" standalone="no"?><!DOCTYPE svg PUBLIC "-//W3C//DTD SVG 1.1//EN" "http://www.w3.org/Graphics/SVG/1.1/DTD/svg11.dtd"><svg t="1593923442907" class="icon" viewBox="0 0 1024 1024" version="1.1" xmlns="http://www.w3.org/2000/svg" p-id="4053" xmlns:xlink="http://www.w3.org/1999/xlink" width="200" height="200"><defs><style type="text/css"></style></defs><path d="M512 981.333333c-8.533333 0-12.8 0-17.066667-4.266666C477.866667 968.533333 128 789.333333 128 512V213.333333c0-17.066667 12.8-34.133333 25.6-38.4l341.333333-128c8.533333-4.266667 21.333333-4.266667 29.866667 0l341.333333 128c17.066667 4.266667 29.866667 21.333333 29.866667 38.4v298.666667c0 277.333333-349.866667 456.533333-366.933333 465.066667-4.266667 4.266667-8.533333 4.266667-17.066667 4.266666zM213.333333 243.2V512c0 192 230.4 337.066667 298.666667 379.733333 68.266667-38.4 298.666667-183.466667 298.666667-379.733333V243.2l-298.666667-110.933333-298.666667 110.933333z" p-id="4054" fill="#3878E1"></path><path d="M512 471.99999969c-12 0-19.99999969-4.00000031-28.00000031-12l-120-120c-16.00000031-16.00000031-16.00000031-40.00000031 0-55.99999969s40.00000031-16.00000031 56.00000062 0l120 120c16.00000031 16.00000031 16.00000031 40.00000031 0 55.99999969-7.99999969 7.99999969-16.00000031 12-28.00000031 12z" p-id="4055" fill="#3878E1"></path><path d="M512 471.99999969c-12 0-19.99999969-4.00000031-28.00000031-12-16.00000031-16.00000031-16.00000031-40.00000031 0-55.99999969l120-120c16.00000031-16.00000031 40.00000031-16.00000031 56.00000062 0s16.00000031 40.00000031 0 55.99999969l-120 120c-7.99999969 7.99999969-16.00000031 12-28.00000031 12z" p-id="4056" fill="#3878E1"></path><path d="M662.00000029 474.49999971H361.99999971c-22.5 0-37.50000029-15.00000029-37.49999942-37.49999942s15.00000029-37.50000029 37.49999942-37.50000029h300.00000058c22.5 0 37.50000029 15.00000029 37.49999942 37.50000029s-15.00000029 37.50000029-37.49999942 37.49999942zM662.00000029 624.5H361.99999971c-22.5 0-37.50000029-15.00000029-37.49999942-37.50000029s15.00000029-37.50000029 37.49999942-37.49999942h300.00000058c22.5 0 37.50000029 15.00000029 37.49999942 37.49999942s-15.00000029 37.50000029-37.49999942 37.50000029z" p-id="4057" fill="#3878E1"></path><path d="M512 752c-24 0-40.00000031-16.00000031-40.00000031-40.00000031v-271.99999969c0-24 16.00000031-40.00000031 40.00000031-40.00000031s40.00000031 16.00000031 40.00000031 40.00000031V711.99999969c0 24-16.00000031 40.00000031-40.00000031 40.00000031z" p-id="4058" fill="#3878E1"></path></svg>