<?xml version="1.0" encoding="UTF-8"?>
<svg width="100px" height="100px" viewBox="0 0 100 100" version="1.1" xmlns="http://www.w3.org/2000/svg" xmlns:xlink="http://www.w3.org/1999/xlink">
    <title>投诉</title>
    <g id="投诉" stroke="none" stroke-width="1" fill="none" fill-rule="evenodd">
        <circle id="椭圆形" fill-opacity="0.9" fill="#FFCB8C" cx="50" cy="50" r="50"></circle>
        <circle id="椭圆形备份" fill="#8ACF44" cx="50" cy="50" r="40"></circle>
        <g transform="translate(10.000000, 10.000000)" fill-rule="nonzero" id="路径">
            <path d="M40.0000465,80.0000991 C62.0914785,80.0000991 80.0000931,62.0914845 80.0000931,40.0000526 C80.0000931,17.9086206 62.0914785,6.03983515e-06 40.0000465,6.03983515e-06 C17.9086146,6.03983515e-06 0,17.9086206 0,40.0000526 C0,62.0914845 17.9086146,80.0000991 40.0000465,80.0000991 Z" fill="#EF8227"></path>
            <path d="M40.0013747,40.3358282 C39.8160018,40.3358282 39.6655547,40.1867241 39.6655547,40.002695 C39.6655547,39.8173221 39.8146588,39.6668751 40.0000317,39.6668751 C40.1854046,39.6668751 40.3358516,39.8173221 40.3358516,40.002695 C40.3358516,40.0671724 40.3170457,40.1289631 40.2834638,40.1840374 L40.2660012,40.1732911 C40.2982399,40.1222465 40.3157025,40.0631426 40.3157025,40.0026948 C40.3157025,39.8294118 40.1733149,39.6870241 40.0000319,39.6870241 C39.8267488,39.6870241 39.6857041,39.8294118 39.6857041,40.0026948 C39.6857041,40.1759778 39.8280918,40.3156788 40.0013748,40.3156788 C40.0725687,40.3156788 40.1424195,40.2914998 40.1961501,40.2485148 L40.2082396,40.2646342 C40.1518219,40.3103057 40.0779418,40.3358282 40.0013745,40.3358282 L40.0013747,40.3358282 Z" fill="#2C2C2C"></path>
        </g>
        <text id="投诉备份-2" font-family="STYuanti-SC-Light, Yuanti SC" font-size="26" font-weight="300" fill="#FFFFFF">
            <tspan x="24" y="60">投诉</tspan>
        </text>
    </g>
</svg>