<?xml version="1.0" standalone="no"?><!DOCTYPE svg PUBLIC "-//W3C//DTD SVG 1.1//EN" "http://www.w3.org/Graphics/SVG/1.1/DTD/svg11.dtd"><svg t="1601742527646" class="icon" viewBox="0 0 1024 1024" version="1.1" xmlns="http://www.w3.org/2000/svg" p-id="4781" xmlns:xlink="http://www.w3.org/1999/xlink" width="200" height="200"><defs><style type="text/css"></style></defs><path d="M870.4 409.6l-12.8 0C825.6 249.6 684.8 128 512 128S198.4 249.6 166.4 409.6L153.6 409.6C140.8 409.6 128 422.4 128 435.2l0 153.6c0 12.8 12.8 25.6 25.6 25.6l108.8 0c12.8 0 25.6-12.8 25.6-25.6L288 435.2c0-12.8-12.8-25.6-25.6-25.6L198.4 409.6C230.4 268.8 358.4 160 512 160s281.6 108.8 313.6 249.6l-57.6 0c-12.8 0-25.6 12.8-25.6 25.6l0 153.6c0 12.8 12.8 25.6 25.6 25.6l38.4 0c-44.8 89.6-128 160-230.4 179.2-6.4-6.4-12.8-19.2-25.6-19.2L473.6 774.4c-12.8 0-25.6 12.8-25.6 25.6l0 25.6c0 12.8 12.8 25.6 25.6 25.6l70.4 0c12.8 0 25.6-12.8 25.6-25.6 121.6-19.2 217.6-102.4 262.4-211.2l32 0c12.8 0 25.6-12.8 25.6-25.6L889.6 435.2C896 422.4 883.2 409.6 870.4 409.6z" p-id="4782" fill="#ffffff"></path></svg>