<?xml version="1.0" standalone="no"?><!DOCTYPE svg PUBLIC "-//W3C//DTD SVG 1.1//EN" "http://www.w3.org/Graphics/SVG/1.1/DTD/svg11.dtd"><svg t="1589888649143" class="icon" viewBox="0 0 1024 1024" version="1.1" xmlns="http://www.w3.org/2000/svg" p-id="1555" xmlns:xlink="http://www.w3.org/1999/xlink" width="200" height="200"><defs><style type="text/css"></style></defs><path d="M863.84 127.73a32 32 0 0 1 32 32v704a32 32 0 0 1-32 32h-704a32 32 0 0 1-32-32v-704a32 32 0 0 1 32-32h704m0-64h-704a96 96 0 0 0-96 96v704a96 96 0 0 0 96 96h704a96 96 0 0 0 96-96v-704a96 96 0 0 0-96-96z" p-id="1556" fill="#696969"></path></svg>